<svg xmlns="http://www.w3.org/2000/svg" width="24" height="24" fill="none" viewBox="0 0 24 24">
    <path fill="#595959" fill-rule="evenodd" d="M16.875 15.455l4 4.005c.179.199.17.503-.02.691l-.7.7c-.094.096-.222.149-.355.149-.133 0-.261-.053-.355-.148l-4-4.005c-.11-.11-.211-.231-.3-.36l-.75-1.001c-1.24.992-2.782 1.532-4.37 1.531-3.272.012-6.116-2.248-6.847-5.442-.732-3.193.845-6.468 3.795-7.885 2.95-1.417 6.488-.598 8.518 1.971 2.03 2.57 2.01 6.205-.046 8.753l1 .691c.156.1.3.218.43.35zM5.025 10.01c0 2.765 2.239 5.006 5 5.006 1.326 0 2.598-.527 3.535-1.466.938-.94 1.465-2.213 1.465-3.54 0-2.765-2.239-5.006-5-5.006s-5 2.241-5 5.006z" clip-rule="evenodd"/>
</svg>
