<svg width="198" height="51" viewBox="0 0 198 51" fill="none" xmlns="http://www.w3.org/2000/svg">
<path d="M37.384 25.672C37.928 25.672 38.2 26.408 38.2 27.88C38.2 28.68 37.864 29.656 37.192 30.808C36.52 31.928 35.64 32.968 34.552 33.928C33.496 34.856 32.312 35.624 31 36.232C29.688 36.84 28.408 37.144 27.16 37.144C25.272 37.144 23.96 36.68 23.224 35.752C22.52 34.792 22.168 33.4 22.168 31.576C22.168 29.72 22.888 26.552 24.328 22.072C19.912 21.88 16.696 21.784 14.68 21.784H14.008C13.432 25.336 13.144 29.064 13.144 32.968C13.144 34.696 12.488 35.88 11.176 36.52C10.568 36.808 9.976 37.08 9.4 37.336C8.856 37.592 8.264 37.72 7.624 37.72C6.024 37.72 5.224 36.28 5.224 33.4C5.224 30.52 5.88 26.824 7.192 22.312C5.784 22.472 4.536 22.632 3.448 22.792C2.392 22.952 1.56 23.032 0.952 23.032C0.344 23.032 0.0399999 22.872 0.0399999 22.552C0.0399999 21.592 0.824 20.616 2.392 19.624C3.992 18.632 6.152 17.88 8.872 17.368C11.88 9.72 15.56 4.616 19.912 2.056C21.512 1.096 23.208 0.615999 25 0.615999C28.2 0.647999 30.504 1.512 31.912 3.208C33.352 4.904 34.072 7.16 34.072 9.976C34.104 12.76 33.256 16.392 31.528 20.872C30.888 22.6 30.296 24.168 29.752 25.576C29.208 26.984 28.936 28.12 28.936 28.984C28.936 29.848 29 30.504 29.128 30.952C29.256 31.4 29.56 31.624 30.04 31.624C30.904 31.624 32.936 29.96 36.136 26.632C36.712 25.992 37.128 25.672 37.384 25.672ZM27.16 11.368C27.16 8.584 26.12 7.192 24.04 7.192C21.928 7.192 20.104 8.088 18.568 9.88C17.064 11.64 15.896 14.008 15.064 16.984L25.96 17.128C26.76 14.568 27.16 12.648 27.16 11.368ZM44.887 16.888C46.551 15 48.679 14.056 51.271 14.056C54.983 14.056 57.335 15.56 58.327 18.568C58.615 19.464 58.759 20.456 58.759 21.544C58.759 23.976 57.959 26.376 56.359 28.744C54.791 31.112 52.887 32.712 50.647 33.544H51.223C53.559 33.544 55.927 32.68 58.327 30.952C59.863 29.864 61.063 28.744 61.927 27.592C62.823 26.408 63.495 25.816 63.943 25.816C64.391 25.816 64.615 26.328 64.615 27.352C64.615 29.144 63.847 30.952 62.311 32.776C60.007 35.4 57.063 36.936 53.479 37.384C50.887 37.672 49.047 37.72 47.959 37.528C46.871 37.336 46.039 37.096 45.463 36.808C44.215 36.168 43.591 35.208 43.591 33.928C43.591 33.224 43.735 32.584 44.023 32.008C46.551 32.008 48.471 31.048 49.783 29.128C51.095 27.208 51.751 24.808 51.751 21.928C51.751 21.224 51.495 20.6 50.983 20.056C50.471 19.48 49.783 19.192 48.919 19.192C48.087 19.192 47.175 19.56 46.183 20.296C45.191 21.032 44.391 21.96 43.783 23.08C43.207 24.168 42.679 25.256 42.199 26.344C41.719 27.4 41.335 28.744 41.047 30.376C40.535 33.32 39.943 37.032 39.271 41.512C38.631 46.024 38.231 48.44 38.071 48.76C37.911 49.112 37.671 49.432 37.351 49.72C37.031 50.008 36.695 50.152 36.343 50.152C35.703 50.152 35.175 49.96 34.759 49.576C33.607 48.584 32.935 47.816 32.743 47.272C32.551 46.76 32.455 46.088 32.455 45.256C32.455 42.12 32.983 37.72 34.039 32.056C35.095 26.392 36.919 20.504 39.511 14.392C39.895 13.496 40.567 13.048 41.527 13.048C42.519 13.048 43.463 13.912 44.359 15.64C44.615 16.088 44.791 16.504 44.887 16.888ZM81.5976 32.92C79.0696 35.896 76.0296 37.384 72.4776 37.384C68.9576 37.384 66.3176 36.488 64.5576 34.696C62.7976 32.872 61.9336 30.616 61.9656 27.928C61.9336 24.12 63.1336 20.84 65.5656 18.088C67.9976 15.336 71.1816 13.96 75.1176 13.96C76.9096 13.96 78.3496 14.184 79.4376 14.632C81.3256 15.4 82.2696 16.12 82.2696 16.792C82.2696 17.304 80.9416 17.576 78.2856 17.608C75.6616 17.608 73.4536 18.52 71.6616 20.344C69.9016 22.136 69.0216 24.408 69.0216 27.16C69.0216 28.6 69.4376 29.816 70.2696 30.808C71.1336 31.768 72.3336 32.248 73.8696 32.248C75.4376 32.248 76.7336 31.928 77.7576 31.288C75.4856 29.752 74.3496 27.528 74.3496 24.616C74.3176 23.08 74.8616 21.688 75.9816 20.44C77.1336 19.16 78.5896 18.52 80.3496 18.52C82.1416 18.488 83.4216 18.968 84.1896 19.96C84.9576 20.952 85.3416 22.232 85.3416 23.8C85.3416 25.336 84.9736 26.968 84.2376 28.696H84.5256C85.9336 28.664 87.1496 28.168 88.1736 27.208C88.5576 26.824 88.8776 26.488 89.1336 26.2C89.4216 25.912 89.7096 25.768 89.9976 25.768C90.4456 25.768 90.6696 26.296 90.6696 27.352C90.6696 29.304 90.0936 30.776 88.9416 31.768C87.7896 32.728 86.5096 33.208 85.1016 33.208C83.7256 33.208 82.5576 33.112 81.5976 32.92ZM81.1656 27.352C81.7096 26.2 81.9816 25.08 81.9816 23.992C81.9816 22.904 81.6296 22.36 80.9256 22.36C80.6376 22.36 80.3976 22.568 80.2056 22.984C80.0136 23.4 79.9176 23.8 79.9176 24.184C79.9176 25.464 80.3336 26.52 81.1656 27.352ZM90.3801 34.408C90.0281 33.544 89.7721 32.552 89.6121 31.432C89.4521 30.28 89.3721 28.68 89.3721 26.632C89.3721 24.584 89.7561 21.816 90.5241 18.328H88.3641C87.9801 18.328 87.7881 18.168 87.7881 17.848C87.7881 17.08 87.8521 16.456 87.9801 15.976C88.1401 15.464 88.4921 14.888 89.0361 14.248H90.1881C90.6361 14.248 91.1161 14.232 91.6281 14.2C93.1641 9.272 94.7321 6.808 96.3321 6.808C97.6121 6.84 98.5081 7.656 99.0201 9.256C99.1481 9.704 99.2921 10.184 99.4521 10.696L97.4841 14.152C99.7241 14.216 101.132 14.248 101.708 14.248C102.316 14.248 102.636 14.312 102.668 14.44C102.732 14.536 102.764 14.696 102.764 14.92C102.764 15.496 102.62 16.216 102.332 17.08C102.076 17.944 101.772 18.36 101.42 18.328L96.6201 18.088C95.9481 21.992 95.6121 25.224 95.6121 27.784C95.6121 30.344 95.9801 31.624 96.7161 31.624C97.3241 31.624 98.4281 31.128 100.028 30.136C101.628 29.112 102.78 28.136 103.484 27.208C104.188 26.28 104.764 25.816 105.212 25.816C105.66 25.816 105.884 26.36 105.884 27.448C105.884 28.536 105.5 29.656 104.732 30.808C103.964 31.928 102.988 32.968 101.804 33.928C100.652 34.856 99.3561 35.624 97.9161 36.232C96.5081 36.84 95.2761 37.144 94.2201 37.144C93.1641 37.144 92.3481 36.904 91.7721 36.424C91.2281 35.912 90.7641 35.24 90.3801 34.408ZM119.487 20.872C119.487 19.72 118.799 19.144 117.423 19.144C116.079 19.144 114.751 20.2 113.439 22.312C112.127 24.392 111.311 26.52 110.991 28.696C111.055 29.432 111.119 30.168 111.183 30.904C111.247 31.64 111.279 32.36 111.279 33.064C111.279 34.76 110.719 35.912 109.599 36.52C109.087 36.808 108.591 37.08 108.111 37.336C107.663 37.592 107.135 37.72 106.527 37.72C105.919 37.72 105.375 37.32 104.895 36.52C104.447 35.688 104.223 34.408 104.223 32.68C104.223 27.848 104.575 23.656 105.279 20.104C106.367 14.6 108.527 8.712 111.759 2.44C112.207 1.576 112.863 1.16 113.727 1.192C114.591 1.192 115.295 1.784 115.839 2.968C116.383 4.152 116.639 5.144 116.607 5.944C116.607 6.744 116.479 7.528 116.223 8.296C115.999 9.032 115.695 9.768 115.311 10.504C114.959 11.208 114.543 11.944 114.062 12.712C113.615 13.448 113.167 14.248 112.719 15.112L111.999 18.568C113.247 16.488 114.927 15.096 117.039 14.392C117.807 14.136 118.655 14.008 119.583 14.008C121.759 14.008 123.407 14.504 124.527 15.496C125.647 16.456 126.207 17.832 126.207 19.624C126.207 21.384 125.967 23.176 125.487 25C125.039 26.824 124.703 28.136 124.479 28.936C124.287 29.704 124.191 30.344 124.191 30.856C124.191 31.368 124.367 31.624 124.719 31.624C125.199 31.624 125.791 31.32 126.495 30.712C127.199 30.104 127.903 29.448 128.607 28.744C129.311 28.008 129.951 27.336 130.527 26.728C131.135 26.12 131.551 25.816 131.775 25.816C132.223 25.816 132.447 26.36 132.447 27.448C132.447 29.688 131.343 31.848 129.135 33.928C125.423 36.104 123.055 37.192 122.031 37.192C121.935 37.192 121.871 37.176 121.839 37.144C119.279 37.144 117.999 35.096 117.999 31C117.999 29.24 118.159 27.624 118.479 26.152C118.831 24.68 119.087 23.608 119.247 22.936C119.407 22.264 119.487 21.576 119.487 20.872ZM141.218 31.768C143.714 31.768 146.13 30.776 148.466 28.792C149.33 28.056 150.034 27.384 150.578 26.776C151.122 26.136 151.538 25.816 151.826 25.816C152.274 25.816 152.498 26.264 152.498 27.16C152.498 28.056 152.258 29.064 151.778 30.184C151.298 31.272 150.498 32.344 149.378 33.4C146.626 35.992 142.85 37.288 138.05 37.288C134.242 37.288 131.65 35.912 130.274 33.16C129.794 32.2 129.554 30.824 129.554 29.032C129.554 27.24 129.906 25.384 130.61 23.464C131.314 21.512 132.242 19.832 133.394 18.424C134.578 17.016 135.938 15.928 137.474 15.16C139.01 14.36 140.642 13.96 142.37 13.96C144.13 13.96 145.474 14.392 146.402 15.256C147.362 16.12 147.842 17.24 147.842 18.616C147.842 19.992 147.49 21.128 146.786 22.024C146.114 22.888 145.234 23.624 144.146 24.232C143.058 24.808 141.842 25.336 140.498 25.816C139.186 26.264 137.89 26.776 136.61 27.352V28.552C136.642 29.704 137.122 30.52 138.05 31C138.978 31.48 140.034 31.736 141.218 31.768ZM140.402 18.232C138.738 18.232 137.586 20.168 136.946 24.04C137.618 23.592 138.242 23.192 138.818 22.84C139.426 22.488 139.954 22.152 140.402 21.832C141.362 21.128 141.858 20.328 141.89 19.432C141.89 18.632 141.394 18.232 140.402 18.232ZM164.112 26.488C164.976 29.912 166.432 31.624 168.48 31.624C169.472 31.624 170.368 31.32 171.168 30.712C171.968 30.104 172.688 29.448 173.328 28.744C173.968 28.008 174.528 27.336 175.008 26.728C175.488 26.12 175.936 25.816 176.352 25.816C176.768 25.816 176.976 26.36 176.976 27.448C176.976 29.72 175.92 31.912 173.808 34.024C171.696 36.136 169.328 37.176 166.704 37.144C164.112 37.144 161.792 34.856 159.744 30.28C159.168 29 158.624 27.704 158.112 26.392L157.776 32.968C157.776 33.576 157.744 34.184 157.68 34.792C157.616 35.368 157.344 35.848 156.864 36.232C155.616 37.224 154.352 37.72 153.072 37.72C151.568 37.72 150.816 36.168 150.816 33.064C150.816 28.584 151.344 23.896 152.4 19C153.456 14.104 154.48 10.424 155.472 7.96C156.496 5.464 157.28 3.8 157.824 2.968C158.4 2.136 158.848 1.624 159.168 1.432C159.488 1.24 159.84 1.144 160.224 1.144C160.64 1.144 161.072 1.352 161.52 1.768C161.968 2.152 162.448 2.76 162.96 3.592C163.472 4.392 163.728 5.192 163.728 5.992C163.76 6.76 163.632 7.528 163.344 8.296C163.088 9.032 162.736 9.768 162.288 10.504C161.84 11.208 161.344 11.944 160.8 12.712C160.256 13.448 159.712 14.248 159.168 15.112L158.688 19.144C159.808 16.808 161.456 15.24 163.632 14.44C164.4 14.152 165.296 14.008 166.32 14.008C168.368 14.008 169.936 14.504 171.024 15.496C172.112 16.456 172.656 17.88 172.656 19.768C172.656 21.656 171.712 23.256 169.824 24.568C167.936 25.88 166.032 26.52 164.112 26.488ZM165.936 20.872C165.936 19.72 165.28 19.144 163.968 19.144C162.656 19.144 161.232 20.408 159.696 22.936C159.248 23.672 158.864 24.424 158.544 25.192C161.872 25 164.144 24.104 165.36 22.504C165.744 21.992 165.936 21.448 165.936 20.872ZM185.749 31.768C188.245 31.768 190.661 30.776 192.997 28.792C193.861 28.056 194.565 27.384 195.109 26.776C195.653 26.136 196.069 25.816 196.357 25.816C196.805 25.816 197.029 26.264 197.029 27.16C197.029 28.056 196.789 29.064 196.309 30.184C195.829 31.272 195.029 32.344 193.909 33.4C191.157 35.992 187.381 37.288 182.581 37.288C178.773 37.288 176.181 35.912 174.805 33.16C174.325 32.2 174.085 30.824 174.085 29.032C174.085 27.24 174.437 25.384 175.141 23.464C175.845 21.512 176.773 19.832 177.925 18.424C179.109 17.016 180.469 15.928 182.005 15.16C183.541 14.36 185.173 13.96 186.901 13.96C188.661 13.96 190.005 14.392 190.933 15.256C191.893 16.12 192.373 17.24 192.373 18.616C192.373 19.992 192.021 21.128 191.317 22.024C190.645 22.888 189.765 23.624 188.677 24.232C187.589 24.808 186.373 25.336 185.029 25.816C183.717 26.264 182.421 26.776 181.141 27.352V28.552C181.173 29.704 181.653 30.52 182.581 31C183.509 31.48 184.565 31.736 185.749 31.768ZM184.933 18.232C183.269 18.232 182.117 20.168 181.477 24.04C182.149 23.592 182.773 23.192 183.349 22.84C183.957 22.488 184.485 22.152 184.933 21.832C185.893 21.128 186.389 20.328 186.421 19.432C186.421 18.632 185.925 18.232 184.933 18.232Z" fill="black"/>
</svg>
